<svg width="28" height="30" viewBox="0 0 28 30" fill="none" xmlns="http://www.w3.org/2000/svg">
<path d="M13.7437 15.5556C15.5646 15.5556 17.3109 14.8532 18.5984 13.6029C19.886 12.3527 20.6093 10.657 20.6093 8.88889C20.6093 7.12078 19.886 5.42509 18.5984 4.17484C17.3109 2.9246 15.5646 2.22222 13.7437 2.22222C11.9228 2.22222 10.1765 2.9246 8.88897 4.17484C7.60142 5.42509 6.87808 7.12078 6.87808 8.88889C6.87808 10.657 7.60142 12.3527 8.88897 13.6029C10.1765 14.8532 11.9228 15.5556 13.7437 15.5556ZM13.7437 17.7778C11.3159 17.7778 8.98747 16.8413 7.27073 15.1743C5.55399 13.5073 4.58953 11.2464 4.58953 8.88889C4.58953 6.53141 5.55399 4.27049 7.27073 2.6035C8.98747 0.936505 11.3159 0 13.7437 0C16.1715 0 18.4999 0.936505 20.2167 2.6035C21.9334 4.27049 22.8979 6.53141 22.8979 8.88889C22.8979 11.2464 21.9334 13.5073 20.2167 15.1743C18.4999 16.8413 16.1715 17.7778 13.7437 17.7778ZM25.1864 28.8889V25.5556C25.1864 24.6715 24.8247 23.8237 24.181 23.1985C23.5372 22.5734 22.664 22.2222 21.7536 22.2222H5.73381C4.82337 22.2222 3.95022 22.5734 3.30644 23.1985C2.66266 23.8237 2.30099 24.6715 2.30099 25.5556V28.8889C2.30099 29.1836 2.18044 29.4662 1.96584 29.6746C1.75125 29.8829 1.4602 30 1.15672 30C0.853243 30 0.562193 29.8829 0.347601 29.6746C0.133008 29.4662 0.0124512 29.1836 0.0124512 28.8889V25.5556C0.0124512 24.0821 0.615235 22.6691 1.6882 21.6272C2.76116 20.5853 4.21641 20 5.73381 20H21.7536C23.271 20 24.7262 20.5853 25.7992 21.6272C26.8722 22.6691 27.475 24.0821 27.475 25.5556V28.8889C27.475 29.1836 27.3544 29.4662 27.1398 29.6746C26.9252 29.8829 26.6342 30 26.3307 30C26.0272 30 25.7362 29.8829 25.5216 29.6746C25.307 29.4662 25.1864 29.1836 25.1864 28.8889Z" fill="black"/>
</svg>
