<svg width="36" height="32" viewBox="0 0 36 32" fill="none" xmlns="http://www.w3.org/2000/svg">
<path d="M15.0386 31.2188C14.5527 31.2188 14.0868 31.036 13.7432 30.7108C13.3997 30.3855 13.2067 29.9444 13.2067 29.4844C13.2067 29.0244 13.3997 28.5832 13.7432 28.258C14.0868 27.9327 14.5527 27.75 15.0386 27.75C15.5245 27.75 15.9904 27.9327 16.334 28.258C16.6775 28.5832 16.8705 29.0244 16.8705 29.4844C16.8705 29.9444 16.6775 30.3855 16.334 30.7108C15.9904 31.036 15.5245 31.2188 15.0386 31.2188ZM27.2515 31.2188C26.7656 31.2188 26.2997 31.036 25.9561 30.7108C25.6126 30.3855 25.4196 29.9444 25.4196 29.4844C25.4196 29.0244 25.6126 28.5832 25.9561 28.258C26.2997 27.9327 26.7656 27.75 27.2515 27.75C27.7374 27.75 28.2033 27.9327 28.5469 28.258C28.8904 28.5832 29.0834 29.0244 29.0834 29.4844C29.0834 29.9444 28.8904 30.3855 28.5469 30.7108C28.2033 31.036 27.7374 31.2188 27.2515 31.2188ZM2.21506 2.3125C1.89116 2.3125 1.58052 2.19068 1.35148 1.97384C1.12245 1.757 0.993774 1.46291 0.993774 1.15625C0.993774 0.849593 1.12245 0.555497 1.35148 0.338658C1.58052 0.121819 1.89116 0 2.21506 0H8.32151C8.60374 0.000161371 8.8772 0.092861 9.0954 0.262338C9.31359 0.431815 9.46305 0.667607 9.51837 0.929625L10.7885 6.9375H33.9686C34.1508 6.93745 34.3307 6.97599 34.4951 7.05029C34.6595 7.12459 34.8042 7.23278 34.9188 7.36692C35.0333 7.50107 35.1147 7.65777 35.1569 7.82555C35.1992 7.99332 35.2013 8.16793 35.163 8.33656L31.4991 24.5241C31.4405 24.7827 31.2899 25.0145 31.0725 25.1807C30.8551 25.3469 30.5841 25.4376 30.3047 25.4375H13.2067C12.9244 25.4373 12.651 25.3446 12.4328 25.1752C12.2146 25.0057 12.0651 24.7699 12.0098 24.5079L7.32005 2.3125H2.21506ZM14.2081 23.125H29.3179L32.4591 9.25H11.277L14.2081 23.125Z" fill="black"/>
</svg>
